<svg width="32" height="24" viewBox="0 0 32 24" fill="none" xmlns="http://www.w3.org/2000/svg">
<path d="M26.5508 2.00165C24.526 1.05428 22.3839 0.381129 20.1812 0C19.9069 0.49604 19.5863 1.16322 19.3652 1.69399C16.9903 1.33688 14.6372 1.33688 12.306 1.69399C12.085 1.16334 11.7572 0.49604 11.4803 0C9.27545 0.381305 7.13157 1.05617 5.10585 2.00659C1.07482 8.09813 -0.0179668 14.0382 0.528365 19.8942C3.20201 21.8908 5.79305 23.1037 8.34043 23.8974C8.97351 23.0268 9.53315 22.105 10.0136 21.1417C9.09893 20.7935 8.2172 20.3644 7.37886 19.8595C7.59948 19.6959 7.8149 19.5255 8.02481 19.3485C13.1048 21.7246 18.6246 21.7246 23.6441 19.3485C23.8549 19.5243 24.0703 19.6947 24.2899 19.8595C23.4502 20.3657 22.5669 20.7957 21.6504 21.1442C22.1336 22.1115 22.6922 23.0341 23.3235 23.8998C25.8733 23.1062 28.4668 21.8933 31.1404 19.8942C31.7816 13.1057 30.0454 7.22002 26.5508 2.00153V2.00165ZM10.7057 16.2929C9.18067 16.2929 7.93001 14.8691 7.93001 13.1355C7.93001 11.4018 9.15401 9.97568 10.7057 9.97568C12.2575 9.97568 13.508 11.3993 13.4814 13.1355C13.4838 14.8691 12.2575 16.2929 10.7057 16.2929ZM20.9631 16.2929C19.4381 16.2929 18.1875 14.8691 18.1875 13.1355C18.1875 11.4018 19.4114 9.97568 20.9631 9.97568C22.5149 9.97568 23.7654 11.3993 23.7388 13.1355C23.7388 14.8691 22.5149 16.2929 20.9631 16.2929Z" fill="#5865F2"/>
</svg>
