<svg width="30" height="24" viewBox="0 0 30 24" fill="none" xmlns="http://www.w3.org/2000/svg">
<path d="M29.3971 2.92252C28.3154 3.40217 27.1531 3.72634 25.9331 3.87218C27.1784 3.12577 28.1347 1.9438 28.5849 0.535493C27.4011 1.23802 26.1058 1.733 24.7551 1.99903C23.6549 0.826938 22.0876 0.0944214 20.3528 0.0944214C17.022 0.0944214 14.3215 2.79482 14.3215 6.12542C14.3215 6.59819 14.3749 7.05844 14.4776 7.49997C9.46519 7.24837 5.02117 4.84734 2.04643 1.19842C1.52739 2.08918 1.22997 3.12531 1.22997 4.23046C1.22997 6.32294 2.29481 8.16887 3.91303 9.25048C2.95527 9.22048 2.01858 8.9618 1.18117 8.49603C1.18082 8.52129 1.18082 8.54655 1.18082 8.57193C1.18082 11.4941 3.25975 13.9317 6.01872 14.4858C5.13059 14.7273 4.199 14.7627 3.29512 14.5892C4.06255 16.9852 6.28995 18.7289 8.92903 18.7777C6.86492 20.3952 4.26431 21.3594 1.43874 21.3594C0.951847 21.3594 0.471847 21.3309 0 21.2752C2.66905 22.9864 5.83923 23.9849 9.24517 23.9849C20.3388 23.9849 26.4051 14.7947 26.4051 6.82487C26.4051 6.56328 26.3993 6.30319 26.3876 6.04458C27.5683 5.19101 28.5875 4.13379 29.3971 2.92252Z" fill="#55ACEE"/>
</svg>
